<mxfile host="app.diagrams.net" modified="2023-02-23T16:02:39.803Z" agent="5.0 (Windows)" etag="liDoPIz0q8MTP51lNiw6" version="20.8.23" type="github">
  <diagram name="Seite-1" id="EmDK2r1r_ojtpIDrd_3T">
    <mxGraphModel dx="1061" dy="548" grid="1" gridSize="10" guides="1" tooltips="1" connect="1" arrows="1" fold="1" page="1" pageScale="1" pageWidth="827" pageHeight="1169" math="0" shadow="0">
      <root>
        <mxCell id="0" />
        <mxCell id="1" parent="0" />
        <mxCell id="56nTkRyiLyYgo9OfkKjr-2" value="" style="rounded=0;whiteSpace=wrap;html=1;fillColor=#eeeeee;strokeColor=#36393d;" vertex="1" parent="1">
          <mxGeometry x="40" y="80" width="760" height="440" as="geometry" />
        </mxCell>
        <mxCell id="56nTkRyiLyYgo9OfkKjr-3" value="&lt;font style=&quot;font-size: 13px;&quot;&gt;&lt;font style=&quot;font-size: 14px;&quot;&gt;&lt;font style=&quot;font-size: 15px;&quot;&gt;&lt;font style=&quot;font-size: 16px;&quot;&gt;&lt;font style=&quot;font-size: 17px;&quot;&gt;&lt;font style=&quot;font-size: 18px;&quot;&gt;&lt;font style=&quot;font-size: 19px;&quot;&gt;&lt;font style=&quot;font-size: 20px;&quot;&gt;&lt;font style=&quot;font-size: 21px;&quot;&gt;&lt;font style=&quot;font-size: 22px;&quot;&gt;&lt;font style=&quot;font-size: 23px;&quot;&gt;&lt;font style=&quot;font-size: 24px;&quot;&gt;&lt;font style=&quot;font-size: 25px;&quot;&gt;&lt;font style=&quot;font-size: 26px;&quot;&gt;&lt;font style=&quot;font-size: 27px;&quot;&gt;&lt;font style=&quot;font-size: 28px;&quot;&gt;&lt;font style=&quot;font-size: 29px;&quot;&gt;&lt;b&gt;23.02.23&lt;/b&gt;&lt;/font&gt;&lt;/font&gt;&lt;/font&gt;&lt;/font&gt;&lt;/font&gt;&lt;/font&gt;&lt;/font&gt;&lt;/font&gt;&lt;/font&gt;&lt;/font&gt;&lt;/font&gt;&lt;/font&gt;&lt;/font&gt;&lt;/font&gt;&lt;/font&gt;&lt;/font&gt;&lt;/font&gt;" style="rounded=0;whiteSpace=wrap;html=1;fillColor=#dae8fc;strokeColor=#6c8ebf;" vertex="1" parent="1">
          <mxGeometry x="360" y="90" width="120" height="60" as="geometry" />
        </mxCell>
        <mxCell id="56nTkRyiLyYgo9OfkKjr-4" value="&lt;div style=&quot;font-size: 20px;&quot;&gt;&lt;font style=&quot;font-size: 20px;&quot;&gt;Foldout Kalender Heutiger Tag&lt;/font&gt;&lt;/div&gt;&lt;div style=&quot;font-size: 20px;&quot;&gt;&lt;font style=&quot;font-size: 20px;&quot;&gt;&lt;font style=&quot;font-size: 20px;&quot;&gt;(To-Do| Cis| etc.)&lt;/font&gt;&lt;/font&gt;&lt;/div&gt;&lt;div style=&quot;font-size: 20px;&quot;&gt;&lt;font style=&quot;font-size: 20px;&quot;&gt;&lt;font style=&quot;font-size: 20px;&quot;&gt;&lt;br&gt;&lt;/font&gt;&lt;/font&gt;&lt;/div&gt;&lt;div style=&quot;font-size: 20px;&quot;&gt;&lt;font style=&quot;font-size: 20px;&quot;&gt;&lt;font style=&quot;font-size: 20px;&quot;&gt;Hovern = Ausklappen&lt;/font&gt;&lt;/font&gt;&lt;/div&gt;&lt;div style=&quot;font-size: 20px;&quot;&gt;&lt;font style=&quot;font-size: 20px;&quot;&gt;&lt;font style=&quot;font-size: 20px;&quot;&gt;&lt;br&gt;&lt;/font&gt;&lt;/font&gt;&lt;/div&gt;&lt;div style=&quot;font-size: 20px;&quot;&gt;&lt;font style=&quot;font-size: 20px;&quot;&gt;&lt;font style=&quot;font-size: 20px;&quot;&gt;Klick = redirect auf eigene Kalender-seite&lt;br&gt;&lt;/font&gt;&lt;/font&gt;&lt;/div&gt;" style="rounded=0;whiteSpace=wrap;html=1;fontSize=46;fillColor=#fff2cc;gradientColor=#ffd966;strokeColor=#d6b656;" vertex="1" parent="1">
          <mxGeometry x="700" y="90" width="100" height="420" as="geometry" />
        </mxCell>
        <mxCell id="56nTkRyiLyYgo9OfkKjr-6" value="" style="sketch=0;pointerEvents=1;shadow=0;dashed=0;html=1;strokeColor=none;fillColor=#505050;labelPosition=center;verticalLabelPosition=bottom;verticalAlign=top;outlineConnect=0;align=center;shape=mxgraph.office.concepts.pin;fontSize=20;" vertex="1" parent="1">
          <mxGeometry x="780" y="90" width="20" height="30" as="geometry" />
        </mxCell>
        <mxCell id="56nTkRyiLyYgo9OfkKjr-7" value="&lt;div&gt;Wetter&lt;/div&gt;" style="rounded=0;whiteSpace=wrap;html=1;fontSize=20;fillColor=#dae8fc;gradientColor=#7ea6e0;strokeColor=#6c8ebf;" vertex="1" parent="1">
          <mxGeometry x="130" y="150" width="220" height="360" as="geometry" />
        </mxCell>
        <mxCell id="56nTkRyiLyYgo9OfkKjr-8" value="&lt;div align=&quot;left&quot;&gt;To-Do&lt;br&gt;&lt;/div&gt;&lt;div&gt;&lt;br&gt;&lt;/div&gt;&lt;div&gt;&lt;br&gt;&lt;/div&gt;&lt;div&gt;&lt;br&gt;&lt;/div&gt;&lt;div&gt;&lt;br&gt;&lt;/div&gt;&lt;div&gt;&lt;br&gt;&lt;/div&gt;&lt;div&gt;&lt;br&gt;&lt;/div&gt;&lt;div&gt;&lt;br&gt;&lt;/div&gt;&lt;div&gt;&lt;br&gt;&lt;/div&gt;&lt;div&gt;&lt;br&gt;&lt;/div&gt;" style="rounded=0;whiteSpace=wrap;html=1;fontSize=20;fillColor=#fff2cc;strokeColor=#d6b656;" vertex="1" parent="1">
          <mxGeometry x="50" y="150" width="70" height="360" as="geometry" />
        </mxCell>
        <mxCell id="56nTkRyiLyYgo9OfkKjr-10" value="" style="whiteSpace=wrap;html=1;aspect=fixed;fontSize=20;" vertex="1" parent="1">
          <mxGeometry x="90" y="480" width="30" height="30" as="geometry" />
        </mxCell>
        <mxCell id="56nTkRyiLyYgo9OfkKjr-9" value="" style="shape=image;html=1;verticalAlign=top;verticalLabelPosition=bottom;labelBackgroundColor=#ffffff;imageAspect=0;aspect=fixed;image=https://cdn4.iconfinder.com/data/icons/ionicons/512/icon-plus-round-128.png;fontSize=20;" vertex="1" parent="1">
          <mxGeometry x="90" y="480" width="30" height="30" as="geometry" />
        </mxCell>
        <mxCell id="56nTkRyiLyYgo9OfkKjr-12" value="&lt;div&gt;Cis - Suche&lt;/div&gt;" style="rounded=0;whiteSpace=wrap;html=1;fontSize=20;" vertex="1" parent="1">
          <mxGeometry x="50" y="105" width="300" height="30" as="geometry" />
        </mxCell>
        <mxCell id="56nTkRyiLyYgo9OfkKjr-13" value="Fotos" style="whiteSpace=wrap;html=1;aspect=fixed;fontSize=20;fillColor=#f5f5f5;strokeColor=#666666;gradientColor=#b3b3b3;" vertex="1" parent="1">
          <mxGeometry x="560" y="380" width="130" height="130" as="geometry" />
        </mxCell>
        <mxCell id="56nTkRyiLyYgo9OfkKjr-14" value="" style="ellipse;whiteSpace=wrap;html=1;aspect=fixed;fontSize=29;fillColor=#6d8764;fontColor=#ffffff;strokeColor=#3A5431;" vertex="1" parent="1">
          <mxGeometry x="500" y="90" width="150" height="150" as="geometry" />
        </mxCell>
        <mxCell id="56nTkRyiLyYgo9OfkKjr-16" value="" style="endArrow=classic;html=1;rounded=0;fontSize=29;strokeWidth=5;" edge="1" parent="1">
          <mxGeometry width="50" height="50" relative="1" as="geometry">
            <mxPoint x="574" y="170" as="sourcePoint" />
            <mxPoint x="610" y="130" as="targetPoint" />
          </mxGeometry>
        </mxCell>
        <mxCell id="56nTkRyiLyYgo9OfkKjr-17" value="" style="endArrow=classic;html=1;rounded=0;fontSize=29;strokeWidth=5;entryX=0.5;entryY=0;entryDx=0;entryDy=0;" edge="1" parent="1" target="56nTkRyiLyYgo9OfkKjr-14">
          <mxGeometry width="50" height="50" relative="1" as="geometry">
            <mxPoint x="574" y="170" as="sourcePoint" />
            <mxPoint x="580" y="210" as="targetPoint" />
          </mxGeometry>
        </mxCell>
        <mxCell id="56nTkRyiLyYgo9OfkKjr-18" value="&lt;div&gt;index&lt;/div&gt;" style="text;html=1;strokeColor=none;fillColor=none;spacing=5;spacingTop=-20;whiteSpace=wrap;overflow=hidden;rounded=0;fontSize=29;" vertex="1" parent="1">
          <mxGeometry x="310" y="15" width="190" height="120" as="geometry" />
        </mxCell>
        <mxCell id="56nTkRyiLyYgo9OfkKjr-19" value="Kalender" style="text;html=1;strokeColor=none;fillColor=none;spacing=5;spacingTop=-20;whiteSpace=wrap;overflow=hidden;rounded=0;fontSize=29;" vertex="1" parent="1">
          <mxGeometry x="319" y="540" width="190" height="120" as="geometry" />
        </mxCell>
        <mxCell id="56nTkRyiLyYgo9OfkKjr-20" value="" style="rounded=0;whiteSpace=wrap;html=1;fillColor=#eeeeee;strokeColor=#36393d;" vertex="1" parent="1">
          <mxGeometry x="40" y="589" width="760" height="440" as="geometry" />
        </mxCell>
        <mxCell id="56nTkRyiLyYgo9OfkKjr-21" value="&lt;div&gt;Tag/KW/Jahr&lt;/div&gt;" style="text;html=1;strokeColor=none;fillColor=none;align=center;verticalAlign=middle;whiteSpace=wrap;rounded=0;fontSize=29;" vertex="1" parent="1">
          <mxGeometry x="375" y="600" width="60" height="30" as="geometry" />
        </mxCell>
        <mxCell id="56nTkRyiLyYgo9OfkKjr-22" value="Ansicht wechseln" style="text;html=1;strokeColor=none;fillColor=none;align=center;verticalAlign=middle;whiteSpace=wrap;rounded=0;fontSize=16;" vertex="1" parent="1">
          <mxGeometry x="40" y="590" width="60" height="30" as="geometry" />
        </mxCell>
        <mxCell id="56nTkRyiLyYgo9OfkKjr-24" value="&lt;div&gt;Jahresansicht&lt;/div&gt;&lt;div&gt;&lt;br&gt;&lt;/div&gt;&lt;div&gt;&lt;br&gt;&lt;/div&gt;&lt;div&gt;&lt;br&gt;&lt;/div&gt;&lt;div&gt;&lt;br&gt;&lt;/div&gt;&lt;div&gt;&lt;br&gt;&lt;/div&gt;&lt;div&gt;&lt;br&gt;&lt;/div&gt;&lt;div&gt;&lt;br&gt;&lt;/div&gt;&lt;div&gt;&lt;br&gt;&lt;/div&gt;&lt;div&gt;&lt;br&gt;&lt;/div&gt;&lt;div&gt;&lt;br&gt;&lt;/div&gt;&lt;div&gt;&lt;br&gt;&lt;/div&gt;&lt;div&gt;&lt;br&gt;&lt;/div&gt;&lt;div&gt;&lt;br&gt;&lt;/div&gt;&lt;div&gt;&lt;br&gt;&lt;/div&gt;&lt;div&gt;&lt;br&gt;&lt;/div&gt;&lt;div&gt;&lt;br&gt;&lt;/div&gt;&lt;div&gt;&lt;br&gt;&lt;/div&gt;&lt;div&gt;&lt;br&gt;&lt;/div&gt;&lt;div&gt;&lt;br&gt;&lt;/div&gt;" style="rounded=0;whiteSpace=wrap;html=1;fontSize=16;" vertex="1" parent="1">
          <mxGeometry x="50" y="650" width="740" height="360" as="geometry" />
        </mxCell>
        <mxCell id="56nTkRyiLyYgo9OfkKjr-34" value="Jan" style="rounded=0;whiteSpace=wrap;html=1;fontSize=16;" vertex="1" parent="1">
          <mxGeometry x="60" y="660" width="170" height="100" as="geometry" />
        </mxCell>
        <mxCell id="56nTkRyiLyYgo9OfkKjr-35" value="Feb" style="rounded=0;whiteSpace=wrap;html=1;fontSize=16;" vertex="1" parent="1">
          <mxGeometry x="244" y="660" width="170" height="100" as="geometry" />
        </mxCell>
        <mxCell id="56nTkRyiLyYgo9OfkKjr-36" value="" style="rounded=0;whiteSpace=wrap;html=1;fontSize=16;" vertex="1" parent="1">
          <mxGeometry x="610" y="660" width="170" height="100" as="geometry" />
        </mxCell>
        <mxCell id="56nTkRyiLyYgo9OfkKjr-37" value="etc.." style="rounded=0;whiteSpace=wrap;html=1;fontSize=16;" vertex="1" parent="1">
          <mxGeometry x="430" y="660" width="170" height="100" as="geometry" />
        </mxCell>
        <mxCell id="56nTkRyiLyYgo9OfkKjr-38" value="" style="rounded=0;whiteSpace=wrap;html=1;fontSize=16;" vertex="1" parent="1">
          <mxGeometry x="60" y="890" width="170" height="100" as="geometry" />
        </mxCell>
        <mxCell id="56nTkRyiLyYgo9OfkKjr-39" value="" style="rounded=0;whiteSpace=wrap;html=1;fontSize=16;" vertex="1" parent="1">
          <mxGeometry x="244" y="890" width="170" height="100" as="geometry" />
        </mxCell>
        <mxCell id="56nTkRyiLyYgo9OfkKjr-40" value="" style="rounded=0;whiteSpace=wrap;html=1;fontSize=16;" vertex="1" parent="1">
          <mxGeometry x="610" y="890" width="170" height="100" as="geometry" />
        </mxCell>
        <mxCell id="56nTkRyiLyYgo9OfkKjr-41" value="" style="rounded=0;whiteSpace=wrap;html=1;fontSize=16;" vertex="1" parent="1">
          <mxGeometry x="430" y="890" width="170" height="100" as="geometry" />
        </mxCell>
        <mxCell id="56nTkRyiLyYgo9OfkKjr-42" value="" style="rounded=0;whiteSpace=wrap;html=1;fontSize=16;" vertex="1" parent="1">
          <mxGeometry x="60" y="770" width="170" height="100" as="geometry" />
        </mxCell>
        <mxCell id="56nTkRyiLyYgo9OfkKjr-43" value="" style="rounded=0;whiteSpace=wrap;html=1;fontSize=16;" vertex="1" parent="1">
          <mxGeometry x="244" y="770" width="170" height="100" as="geometry" />
        </mxCell>
        <mxCell id="56nTkRyiLyYgo9OfkKjr-44" value="" style="rounded=0;whiteSpace=wrap;html=1;fontSize=16;" vertex="1" parent="1">
          <mxGeometry x="610" y="770" width="170" height="100" as="geometry" />
        </mxCell>
        <mxCell id="56nTkRyiLyYgo9OfkKjr-45" value="" style="rounded=0;whiteSpace=wrap;html=1;fontSize=16;" vertex="1" parent="1">
          <mxGeometry x="430" y="770" width="170" height="100" as="geometry" />
        </mxCell>
        <mxCell id="56nTkRyiLyYgo9OfkKjr-46" value="" style="rounded=0;whiteSpace=wrap;html=1;fillColor=#eeeeee;strokeColor=#36393d;" vertex="1" parent="1">
          <mxGeometry x="40" y="1029" width="760" height="440" as="geometry" />
        </mxCell>
        <mxCell id="56nTkRyiLyYgo9OfkKjr-47" value="&lt;div&gt;Tag/KW/Jahr&lt;/div&gt;" style="text;html=1;strokeColor=none;fillColor=none;align=center;verticalAlign=middle;whiteSpace=wrap;rounded=0;fontSize=29;" vertex="1" parent="1">
          <mxGeometry x="375" y="1040" width="60" height="30" as="geometry" />
        </mxCell>
        <mxCell id="56nTkRyiLyYgo9OfkKjr-48" value="Ansicht wechseln" style="text;html=1;strokeColor=none;fillColor=none;align=center;verticalAlign=middle;whiteSpace=wrap;rounded=0;fontSize=16;" vertex="1" parent="1">
          <mxGeometry x="40" y="1030" width="60" height="30" as="geometry" />
        </mxCell>
        <mxCell id="56nTkRyiLyYgo9OfkKjr-49" value="&lt;div&gt;Wochenansicht&lt;/div&gt;&lt;div&gt;&lt;br&gt;&lt;/div&gt;&lt;div&gt;&lt;br&gt;&lt;/div&gt;&lt;div&gt;&lt;br&gt;&lt;/div&gt;&lt;div&gt;&lt;br&gt;&lt;/div&gt;&lt;div&gt;&lt;br&gt;&lt;/div&gt;&lt;div&gt;&lt;br&gt;&lt;/div&gt;&lt;div&gt;&lt;br&gt;&lt;/div&gt;&lt;div&gt;&lt;br&gt;&lt;/div&gt;&lt;div&gt;&lt;br&gt;&lt;/div&gt;&lt;div&gt;&lt;br&gt;&lt;/div&gt;&lt;div&gt;&lt;br&gt;&lt;/div&gt;&lt;div&gt;&lt;br&gt;&lt;/div&gt;&lt;div&gt;&lt;br&gt;&lt;/div&gt;&lt;div&gt;&lt;br&gt;&lt;/div&gt;&lt;div&gt;&lt;br&gt;&lt;/div&gt;&lt;div&gt;&lt;br&gt;&lt;/div&gt;&lt;div&gt;&lt;br&gt;&lt;/div&gt;&lt;div&gt;&lt;br&gt;&lt;/div&gt;" style="rounded=0;whiteSpace=wrap;html=1;fontSize=16;" vertex="1" parent="1">
          <mxGeometry x="50" y="1090" width="740" height="360" as="geometry" />
        </mxCell>
        <mxCell id="56nTkRyiLyYgo9OfkKjr-52" value="" style="rounded=0;whiteSpace=wrap;html=1;fontSize=16;" vertex="1" parent="1">
          <mxGeometry x="680" y="1100" width="100" height="340" as="geometry" />
        </mxCell>
        <mxCell id="56nTkRyiLyYgo9OfkKjr-62" value="" style="rounded=0;whiteSpace=wrap;html=1;fontSize=16;" vertex="1" parent="1">
          <mxGeometry x="580" y="1100" width="100" height="340" as="geometry" />
        </mxCell>
        <mxCell id="56nTkRyiLyYgo9OfkKjr-63" value="" style="rounded=0;whiteSpace=wrap;html=1;fontSize=16;" vertex="1" parent="1">
          <mxGeometry x="480" y="1100" width="100" height="340" as="geometry" />
        </mxCell>
        <mxCell id="56nTkRyiLyYgo9OfkKjr-64" value="" style="rounded=0;whiteSpace=wrap;html=1;fontSize=16;" vertex="1" parent="1">
          <mxGeometry x="379" y="1100" width="100" height="340" as="geometry" />
        </mxCell>
        <mxCell id="56nTkRyiLyYgo9OfkKjr-65" value="Etc..." style="rounded=0;whiteSpace=wrap;html=1;fontSize=16;" vertex="1" parent="1">
          <mxGeometry x="279" y="1100" width="100" height="340" as="geometry" />
        </mxCell>
        <mxCell id="56nTkRyiLyYgo9OfkKjr-66" value="Di" style="rounded=0;whiteSpace=wrap;html=1;fontSize=16;" vertex="1" parent="1">
          <mxGeometry x="180" y="1100" width="100" height="340" as="geometry" />
        </mxCell>
        <mxCell id="56nTkRyiLyYgo9OfkKjr-67" value="Mo" style="rounded=0;whiteSpace=wrap;html=1;fontSize=16;" vertex="1" parent="1">
          <mxGeometry x="80" y="1100" width="100" height="340" as="geometry" />
        </mxCell>
        <mxCell id="56nTkRyiLyYgo9OfkKjr-76" value="" style="rounded=0;whiteSpace=wrap;html=1;fillColor=#eeeeee;strokeColor=#36393d;" vertex="1" parent="1">
          <mxGeometry x="40" y="1469" width="760" height="440" as="geometry" />
        </mxCell>
        <mxCell id="56nTkRyiLyYgo9OfkKjr-77" value="&lt;div&gt;Tag/KW/Jahr&lt;/div&gt;" style="text;html=1;strokeColor=none;fillColor=none;align=center;verticalAlign=middle;whiteSpace=wrap;rounded=0;fontSize=29;" vertex="1" parent="1">
          <mxGeometry x="375" y="1480" width="60" height="30" as="geometry" />
        </mxCell>
        <mxCell id="56nTkRyiLyYgo9OfkKjr-78" value="Ansicht wechseln" style="text;html=1;strokeColor=none;fillColor=none;align=center;verticalAlign=middle;whiteSpace=wrap;rounded=0;fontSize=16;" vertex="1" parent="1">
          <mxGeometry x="40" y="1470" width="60" height="30" as="geometry" />
        </mxCell>
        <mxCell id="56nTkRyiLyYgo9OfkKjr-79" value="&lt;div&gt;Tagesansicht&lt;/div&gt;&lt;div&gt;&lt;br&gt;&lt;/div&gt;&lt;div&gt;&lt;br&gt;&lt;/div&gt;&lt;div&gt;&lt;br&gt;&lt;/div&gt;&lt;div&gt;&lt;br&gt;&lt;/div&gt;&lt;div&gt;&lt;br&gt;&lt;/div&gt;&lt;div&gt;&lt;br&gt;&lt;/div&gt;&lt;div&gt;&lt;br&gt;&lt;/div&gt;&lt;div&gt;&lt;br&gt;&lt;/div&gt;&lt;div&gt;&lt;br&gt;&lt;/div&gt;&lt;div&gt;&lt;br&gt;&lt;/div&gt;&lt;div&gt;&lt;br&gt;&lt;/div&gt;&lt;div&gt;&lt;br&gt;&lt;/div&gt;&lt;div&gt;&lt;br&gt;&lt;/div&gt;&lt;div&gt;&lt;br&gt;&lt;/div&gt;&lt;div&gt;&lt;br&gt;&lt;/div&gt;&lt;div&gt;&lt;br&gt;&lt;/div&gt;&lt;div&gt;&lt;br&gt;&lt;/div&gt;&lt;div&gt;&lt;br&gt;&lt;/div&gt;" style="rounded=0;whiteSpace=wrap;html=1;fontSize=16;" vertex="1" parent="1">
          <mxGeometry x="50" y="1530" width="740" height="360" as="geometry" />
        </mxCell>
        <mxCell id="56nTkRyiLyYgo9OfkKjr-81" value="" style="rounded=0;whiteSpace=wrap;html=1;fontSize=16;" vertex="1" parent="1">
          <mxGeometry x="70" y="1540" width="710" height="340" as="geometry" />
        </mxCell>
        <mxCell id="56nTkRyiLyYgo9OfkKjr-87" value="" style="endArrow=none;dashed=1;html=1;rounded=0;strokeWidth=5;fontSize=16;exitX=0.004;exitY=0.124;exitDx=0;exitDy=0;exitPerimeter=0;" edge="1" parent="1" source="56nTkRyiLyYgo9OfkKjr-81">
          <mxGeometry width="50" height="50" relative="1" as="geometry">
            <mxPoint x="480" y="1720" as="sourcePoint" />
            <mxPoint x="780" y="1580" as="targetPoint" />
          </mxGeometry>
        </mxCell>
        <mxCell id="56nTkRyiLyYgo9OfkKjr-88" value="" style="endArrow=none;dashed=1;html=1;rounded=0;strokeWidth=5;fontSize=16;exitX=0.004;exitY=0.124;exitDx=0;exitDy=0;exitPerimeter=0;" edge="1" parent="1">
          <mxGeometry width="50" height="50" relative="1" as="geometry">
            <mxPoint x="73" y="1612" as="sourcePoint" />
            <mxPoint x="780" y="1610" as="targetPoint" />
          </mxGeometry>
        </mxCell>
        <mxCell id="56nTkRyiLyYgo9OfkKjr-89" value="" style="endArrow=none;dashed=1;html=1;rounded=0;strokeWidth=5;fontSize=16;exitX=0.004;exitY=0.124;exitDx=0;exitDy=0;exitPerimeter=0;startArrow=none;" edge="1" parent="1" source="56nTkRyiLyYgo9OfkKjr-92">
          <mxGeometry width="50" height="50" relative="1" as="geometry">
            <mxPoint x="73" y="1642" as="sourcePoint" />
            <mxPoint x="780" y="1640" as="targetPoint" />
          </mxGeometry>
        </mxCell>
        <mxCell id="56nTkRyiLyYgo9OfkKjr-90" value="" style="endArrow=none;dashed=1;html=1;rounded=0;strokeWidth=5;fontSize=16;exitX=0.004;exitY=0.124;exitDx=0;exitDy=0;exitPerimeter=0;" edge="1" parent="1">
          <mxGeometry width="50" height="50" relative="1" as="geometry">
            <mxPoint x="71.5" y="1672" as="sourcePoint" />
            <mxPoint x="778.5" y="1670" as="targetPoint" />
          </mxGeometry>
        </mxCell>
        <mxCell id="56nTkRyiLyYgo9OfkKjr-91" value="" style="endArrow=none;dashed=1;html=1;rounded=0;strokeWidth=5;fontSize=16;exitX=0.004;exitY=0.124;exitDx=0;exitDy=0;exitPerimeter=0;" edge="1" parent="1">
          <mxGeometry width="50" height="50" relative="1" as="geometry">
            <mxPoint x="75.5" y="1702" as="sourcePoint" />
            <mxPoint x="782.5" y="1700" as="targetPoint" />
          </mxGeometry>
        </mxCell>
        <mxCell id="56nTkRyiLyYgo9OfkKjr-95" value="" style="endArrow=none;dashed=1;html=1;rounded=0;strokeWidth=5;fontSize=16;exitX=0.004;exitY=0.124;exitDx=0;exitDy=0;exitPerimeter=0;" edge="1" parent="1" target="56nTkRyiLyYgo9OfkKjr-92">
          <mxGeometry width="50" height="50" relative="1" as="geometry">
            <mxPoint x="73" y="1642" as="sourcePoint" />
            <mxPoint x="780" y="1640" as="targetPoint" />
          </mxGeometry>
        </mxCell>
        <mxCell id="56nTkRyiLyYgo9OfkKjr-92" value="&lt;div&gt;10:00&lt;/div&gt;&lt;div&gt;&lt;br&gt;&lt;/div&gt;&lt;div&gt;11:00&lt;br&gt;&lt;/div&gt;&lt;div&gt;etc&lt;br&gt;&lt;/div&gt;&lt;div&gt;&lt;br&gt;&lt;/div&gt;&lt;div&gt;..&lt;br&gt;&lt;/div&gt;&lt;div&gt;..&lt;br&gt;&lt;/div&gt;" style="text;html=1;strokeColor=none;fillColor=none;align=center;verticalAlign=middle;whiteSpace=wrap;rounded=0;fontSize=16;" vertex="1" parent="1">
          <mxGeometry x="70" y="1640" width="60" height="30" as="geometry" />
        </mxCell>
        <mxCell id="56nTkRyiLyYgo9OfkKjr-98" value="&lt;div&gt;To-Do&lt;/div&gt;" style="text;html=1;strokeColor=none;fillColor=none;spacing=5;spacingTop=-20;whiteSpace=wrap;overflow=hidden;rounded=0;fontSize=29;" vertex="1" parent="1">
          <mxGeometry x="334" y="1920" width="136" height="40" as="geometry" />
        </mxCell>
        <mxCell id="56nTkRyiLyYgo9OfkKjr-99" value="" style="rounded=0;whiteSpace=wrap;html=1;fontSize=16;" vertex="1" parent="1">
          <mxGeometry x="40" y="1960" width="760" height="360" as="geometry" />
        </mxCell>
      </root>
    </mxGraphModel>
  </diagram>
</mxfile>
